HIERARCHY
ROOT Model
{
	OFFSET 0 0 0
	CHANNELS 6 Xposition Yposition Zposition Zrotation Xrotation Yrotation
	JOINT Model1
	{
		OFFSET 0 -2.25479 2.99384
		CHANNELS 3 Zrotation Xrotation Yrotation
		JOINT Model2
		{
			OFFSET 12.111 0 0
			CHANNELS 3 Zrotation Xrotation Yrotation
			JOINT Model3
			{
				OFFSET 11.5502 0 0
				CHANNELS 3 Zrotation Xrotation Yrotation
				JOINT Model4
				{
					OFFSET 11.781 0 0
					CHANNELS 3 Zrotation Xrotation Yrotation
					JOINT Model5
					{
						OFFSET 20.0601 0 0
						CHANNELS 3 Zrotation Xrotation Yrotation
						JOINT Model6
						{
							OFFSET 11.1962 0 0
							CHANNELS 3 Zrotation Xrotation Yrotation
							End Site
							{
								OFFSET 0 0 0
							}
						}
					}
					JOINT Model7
					{
						OFFSET 10.8223 0.417534 3.51114
						CHANNELS 3 Zrotation Xrotation Yrotation
						JOINT Model8
						{
							OFFSET -6.07943 0 0
							CHANNELS 3 Zrotation Xrotation Yrotation
							JOINT Model9
							{
								OFFSET -0.277412 10.39 -0.051239
								CHANNELS 3 Zrotation Xrotation Yrotation
								JOINT Model10
								{
									OFFSET -3.4391 -0.282043 1.86678
									CHANNELS 3 Zrotation Xrotation Yrotation
									JOINT Model11
									{
										OFFSET 13.0269 0 0
										CHANNELS 3 Zrotation Xrotation Yrotation
										JOINT Model12
										{
											OFFSET 10.8866 0 0
											CHANNELS 3 Zrotation Xrotation Yrotation
											JOINT Model13
											{
												OFFSET 16.7317 0 0
												CHANNELS 3 Zrotation Xrotation Yrotation
												JOINT Model14
												{
													OFFSET 11.8292 0 0
													CHANNELS 3 Zrotation Xrotation Yrotation
													JOINT Model15
													{
														OFFSET 4.82751 -3.73566 -0.836517
														CHANNELS 3 Zrotation Xrotation Yrotation
														JOINT Model16
														{
															OFFSET 3.75311 -0.0582886 -0.0186462
															CHANNELS 3 Zrotation Xrotation Yrotation
															JOINT Model17
															{
																OFFSET 2.88689 0.0192337 0.014801
																CHANNELS 3 Zrotation Xrotation Yrotation
																End Site
																{
																	OFFSET 0 0 0
																}
															}
														}
													}
													JOINT Model18
													{
														OFFSET 9.72197 -3.06458 0.23877
														CHANNELS 3 Zrotation Xrotation Yrotation
														JOINT Model19
														{
															OFFSET 4.61131 0 0
															CHANNELS 3 Zrotation Xrotation Yrotation
															JOINT Model20
															{
																OFFSET 2.8969 -7.62939e-006 0
																CHANNELS 3 Zrotation Xrotation Yrotation
																End Site
																{
																	OFFSET 0 0 0
																}
															}
														}
													}
													JOINT Model21
													{
														OFFSET 9.54431 -0.745064 0.588943
														CHANNELS 3 Zrotation Xrotation Yrotation
														JOINT Model22
														{
															OFFSET 5.33978 0 0
															CHANNELS 3 Zrotation Xrotation Yrotation
															JOINT Model23
															{
																OFFSET 3.03619 7.62939e-006 0
																CHANNELS 3 Zrotation Xrotation Yrotation
																End Site
																{
																	OFFSET 0 0 0
																}
															}
														}
													}
													JOINT Model24
													{
														OFFSET 9.47758 1.51286 0.485123
														CHANNELS 3 Zrotation Xrotation Yrotation
														JOINT Model25
														{
															OFFSET 4.96136 7.62939e-006 0
															CHANNELS 3 Zrotation Xrotation Yrotation
															JOINT Model26
															{
																OFFSET 2.51965 0 0
																CHANNELS 3 Zrotation Xrotation Yrotation
																End Site
																{
																	OFFSET 0 0 0
																}
															}
														}
													}
													JOINT Model27
													{
														OFFSET 9.34247 3.34117 -0.239273
														CHANNELS 3 Zrotation Xrotation Yrotation
														JOINT Model28
														{
															OFFSET 3.28259 2.28882e-005 0
															CHANNELS 3 Zrotation Xrotation Yrotation
															JOINT Model29
															{
																OFFSET 2.1292 0 0
																CHANNELS 3 Zrotation Xrotation Yrotation
																End Site
																{
																	OFFSET 0 0 0
																}
															}
														}
													}
												}
											}
										}
									}
								}
							}
						}
					}
					JOINT Model30
					{
						OFFSET 10.8223 0.4179 -3.51106
						CHANNELS 3 Zrotation Xrotation Yrotation
						JOINT Model31
						{
							OFFSET 6.07943 0 0
							CHANNELS 3 Zrotation Xrotation Yrotation
							JOINT Model32
							{
								OFFSET 0.277412 -10.39 0.051239
								CHANNELS 3 Zrotation Xrotation Yrotation
								JOINT Model33
								{
									OFFSET 3.4391 0.282043 -1.86678
									CHANNELS 3 Zrotation Xrotation Yrotation
									JOINT Model34
									{
										OFFSET -13.0269 0 0
										CHANNELS 3 Zrotation Xrotation Yrotation
										JOINT Model35
										{
											OFFSET -10.8866 0 0
											CHANNELS 3 Zrotation Xrotation Yrotation
											JOINT Model36
											{
												OFFSET -16.7317 0 0
												CHANNELS 3 Zrotation Xrotation Yrotation
												JOINT Model37
												{
													OFFSET -11.8292 0 0
													CHANNELS 3 Zrotation Xrotation Yrotation
													JOINT Model38
													{
														OFFSET -4.82751 3.73566 0.836517
														CHANNELS 3 Zrotation Xrotation Yrotation
														JOINT Model39
														{
															OFFSET -3.75311 0.0582886 0.0186462
															CHANNELS 3 Zrotation Xrotation Yrotation
															JOINT Model40
															{
																OFFSET -2.88688 -0.0192337 -0.014801
																CHANNELS 3 Zrotation Xrotation Yrotation
																End Site
																{
																	OFFSET 0 0 0
																}
															}
														}
													}
													JOINT Model41
													{
														OFFSET -9.72197 3.06459 -0.23877
														CHANNELS 3 Zrotation Xrotation Yrotation
														JOINT Model42
														{
															OFFSET -4.6113 0 0
															CHANNELS 3 Zrotation Xrotation Yrotation
															JOINT Model43
															{
																OFFSET -2.8969 0 0
																CHANNELS 3 Zrotation Xrotation Yrotation
																End Site
																{
																	OFFSET 0 0 0
																}
															}
														}
													}
													JOINT Model44
													{
														OFFSET -9.5443 0.745064 -0.588943
														CHANNELS 3 Zrotation Xrotation Yrotation
														JOINT Model45
														{
															OFFSET -5.33978 0 0
															CHANNELS 3 Zrotation Xrotation Yrotation
															JOINT Model46
															{
																OFFSET -3.03619 -1.52588e-005 0
																CHANNELS 3 Zrotation Xrotation Yrotation
																End Site
																{
																	OFFSET 0 0 0
																}
															}
														}
													}
													JOINT Model47
													{
														OFFSET -9.47759 -1.51286 -0.485123
														CHANNELS 3 Zrotation Xrotation Yrotation
														JOINT Model48
														{
															OFFSET -4.96136 -1.52588e-005 0
															CHANNELS 3 Zrotation Xrotation Yrotation
															JOINT Model49
															{
																OFFSET -2.51966 0 0
																CHANNELS 3 Zrotation Xrotation Yrotation
																End Site
																{
																	OFFSET 0 0 0
																}
															}
														}
													}
													JOINT Model50
													{
														OFFSET -9.34246 -3.34118 0.239273
														CHANNELS 3 Zrotation Xrotation Yrotation
														JOINT Model51
														{
															OFFSET -3.2826 -2.28882e-005 0
															CHANNELS 3 Zrotation Xrotation Yrotation
															JOINT Model52
															{
																OFFSET -2.1292 0 0
																CHANNELS 3 Zrotation Xrotation Yrotation
																End Site
																{
																	OFFSET 0 0 0
																}
															}
														}
													}
												}
											}
										}
									}
								}
							}
						}
					}
				}
			}
		}
	}
	JOINT Model53
	{
		OFFSET 4.38026 -2.14632 -1.11516
		CHANNELS 3 Zrotation Xrotation Yrotation
		JOINT Model54
		{
			OFFSET 0 0 4.95
			CHANNELS 3 Zrotation Xrotation Yrotation
			JOINT Model55
			{
				OFFSET 18.5642 0 0
				CHANNELS 3 Zrotation Xrotation Yrotation
				JOINT Model56
				{
					OFFSET 21.2884 0 1.52588e-005
					CHANNELS 3 Zrotation Xrotation Yrotation
					JOINT Model57
					{
						OFFSET 30.261 0 0
						CHANNELS 3 Zrotation Xrotation Yrotation
						JOINT Model58
						{
							OFFSET 11.7259 0 0
							CHANNELS 3 Zrotation Xrotation Yrotation
							JOINT Model59
							{
								OFFSET 10.682 0 0
								CHANNELS 3 Zrotation Xrotation Yrotation
								End Site
								{
									OFFSET 0 0 0
								}
							}
						}
					}
				}
			}
		}
	}
	JOINT Model60
	{
		OFFSET -4.38026 -2.14632 -1.11516
		CHANNELS 3 Zrotation Xrotation Yrotation
		JOINT Model61
		{
			OFFSET 0 0 -4.95
			CHANNELS 3 Zrotation Xrotation Yrotation
			JOINT Model62
			{
				OFFSET -18.5642 0 0
				CHANNELS 3 Zrotation Xrotation Yrotation
				JOINT Model63
				{
					OFFSET -21.2884 0 -1.52588e-005
					CHANNELS 3 Zrotation Xrotation Yrotation
					JOINT Model64
					{
						OFFSET -30.261 0 0
						CHANNELS 3 Zrotation Xrotation Yrotation
						JOINT Model65
						{
							OFFSET -11.7259 0 0
							CHANNELS 3 Zrotation Xrotation Yrotation
							JOINT Model66
							{
								OFFSET -10.682 0 0
								CHANNELS 3 Zrotation Xrotation Yrotation
								End Site
								{
									OFFSET 0 0 0
								}
							}
						}
					}
				}
			}
		}
	}
}
MOTION
Frames: 4
Frame Time: 0.033333
44.8007 179.57 -172.788 0 -90 0 -180 4.29621e-031 -90 2.02977e-008 5.70295e-009 -0.399999 -7.64789e-006 -0.000437073 -0.799998 -7.68101e-006 5.94259e-008 -0.799998 8.49692 8.97964e-007 1.06681e-005 1.56189e-005 3.62691e-006 -1.67512e-005 120.092 75.5343 58.4939 6.79679 6.04472 0.654295 -167.277 84.4999 48.8109 167.733 -11.4185 -37.9727 2.83396e-006 16.1465 3.14033e-005 -1.78178 -0.188653 -1.35452 1.2927e-007 -0.259981 -3.71628e-008 -0.192811 -0.000537393 0.319367 -72.0648 39.0385 39.3397 33.3638 2.10362 14.835 0.588947 0.308273 6.35287 -99.6409 81.413 100.35 -0.0181409 2.77902e-005 -0.117315 -0.124139 0.00241114 -0.799296 -79.8382 79.5773 80.5374 -0.000225769 -0.000220911 2.2201e-005 -0.000956217 0.00012291 -2.73118e-005 -66.7416 80.4058 67.2171 -0.000437125 1.5957e-005 -2.73145e-005 -0.000136594 -0.000109276 -5.46331e-005 -6.42159 81.2158 8.01779 -0.000218558 1.69139e-005 0.000212145 0.000901595 -0.000184794 -0.00021856 -59.9282 75.5373 58.5147 3.34131 11.3377 2.87258 -167.277 84.4999 48.8109 163.738 -19.9827 -31.914 7.17693e-006 -0.415781 2.90789e-005 -1.5444 9.96377 -0.12213 -5.97924e-006 14.9736 2.6081e-006 -0.24762 0.0127698 -5.90398 -72.0648 39.0385 39.3397 33.3638 2.10361 14.835 0.588946 0.308273 6.35287 -99.6409 81.413 100.35 -0.0181409 3.00815e-005 -0.117315 -0.124139 0.00241114 -0.799296 -79.8382 79.5773 80.5374 -0.000260645 -0.000218563 2.35799e-005 -0.000956224 0.000123001 -2.73079e-005 -66.7416 80.4058 67.2171 -0.00043713 1.48845e-005 -2.73114e-005 -0.000136601 -0.000109279 -5.46288e-005 -6.42159 81.2158 8.01779 -0.000218564 1.9583e-005 0.000212305 0.000901586 -0.00019124 -0.000218554 0.000811311 0.56661 89.91 -10.2565 -0.65162 -2.88274 4.23453e-007 1.13876 -1.75488e-009 22.2425 0.0132798 0.0251627 -2.68475e-010 -0.019838 1.17122e-008 -62.4972 3.14854 -2.62759 -35.4947 6.58526e-007 1.25032e-007 -180 -0.566579 -90.09 -10.3454 -2.4149 -3.56156 -3.52646e-007 -1.03238 -8.1269e-009 22.24 0.0118874 0.0397204 3.99328e-007 -0.0219567 1.5786e-008 -62.5043 3.1535 -2.63058 -35.4947 2.43466e-006 -1.98689e-007 
44.7939 179.576 -172.757 -55.7225 -89.9487 -55.7188 -180 4.29621e-031 -90 0.0278596 0.0135369 -0.404763 0.0558065 0.0264395 -0.809532 0.0558064 0.0268767 -0.809532 7.69902 0.0218156 0.00909682 -0.349 -0.00235675 0.341157 120.092 75.5343 58.4939 7.08974 6.10106 0.603453 -167.277 84.4999 48.8109 168.023 -11.4057 -37.7501 2.75694e-006 16.2814 3.14248e-005 -1.8123 0.120539 -1.54786 1.2957e-007 0.203047 -3.71626e-008 0.090009 -2.72196e-005 -0.0346392 -72.0648 39.0385 39.3397 33.3638 2.10362 14.835 0.588947 0.308273 6.35287 -99.6409 81.413 100.35 -0.0181409 2.77902e-005 -0.117315 -0.124139 0.00241114 -0.799296 -79.8382 79.5773 80.5374 -0.000225769 -0.000220911 2.2201e-005 -0.000956217 0.00012291 -2.73118e-005 -66.7416 80.4058 67.2171 -0.000437125 1.5957e-005 -2.73145e-005 -0.000136594 -0.000109276 -5.46331e-005 -6.42159 81.2158 8.01779 -0.000218558 1.69139e-005 0.000212145 0.000901595 -0.000184794 -0.00021856 -59.9282 75.5373 58.5147 3.3525 10.9348 2.75955 -167.277 84.4999 48.8109 163.353 -19.8895 -32.1867 7.17686e-006 -0.415628 2.90789e-005 -1.54098 10.0518 -0.123872 -5.98547e-006 15.1058 2.60972e-006 -0.00801729 0.000392176 -5.59062 -72.0648 39.0385 39.3397 33.3638 2.10361 14.835 0.588946 0.308273 6.35287 -99.6409 81.413 100.35 -0.0181409 3.00815e-005 -0.117315 -0.124139 0.00241114 -0.799296 -79.8382 79.5773 80.5374 -0.000260645 -0.000218563 2.35799e-005 -0.000956224 0.000123001 -2.73079e-005 -66.7416 80.4058 67.2171 -0.00043713 1.48845e-005 -2.73114e-005 -0.000136601 -0.000109279 -5.46288e-005 -6.42159 81.2158 8.01779 -0.000218564 1.9583e-005 0.000212305 0.000901586 -0.00019124 -0.000218554 0.000811311 0.56661 89.91 -10.2468 -0.504152 -2.74405 4.23456e-007 1.26263 -1.75496e-009 22.2386 -0.127445 -0.124281 -2.25327e-010 -0.230919 1.17123e-008 -62.4763 3.12688 -2.6145 -35.4947 6.58526e-007 1.25032e-007 -180 -0.566579 -90.09 -10.3591 -2.45 -3.5959 -3.5265e-007 -1.0617 -8.12697e-009 22.2375 0.061454 0.102651 3.99308e-007 0.0523984 1.5786e-008 -62.5402 3.20904 -2.6641 -35.4947 2.43466e-006 -1.98689e-007 
44.7822 179.581 -172.724 -60.5427 -89.8856 -60.5183 -180 4.29621e-031 -90 0.0427201 0.0216423 -0.399613 0.0855824 0.042549 -0.799241 0.0855823 0.0429861 -0.799242 6.76209 0.055931 0.0201976 -0.128879 0.0168562 0.576525 120.092 75.5343 58.4939 7.25403 6.12939 0.574062 -167.277 84.4999 48.8109 168.214 -11.4051 -37.6576 2.70381e-006 16.3743 3.14397e-005 -1.82868 0.259235 -1.68722 1.29705e-007 0.41069 -3.71633e-008 0.290875 -0.000682724 -0.26896 -72.0648 39.0385 39.3397 33.3638 2.10362 14.835 0.588947 0.308273 6.35287 -99.6409 81.413 100.35 -0.0181409 2.77902e-005 -0.117315 -0.124139 0.00241114 -0.799296 -79.8382 79.5773 80.5374 -0.000225769 -0.000220911 2.2201e-005 -0.000956217 0.00012291 -2.73118e-005 -66.7416 80.4058 67.2171 -0.000437125 1.5957e-005 -2.73145e-005 -0.000136594 -0.000109276 -5.46331e-005 -6.42159 81.2158 8.01779 -0.000218558 1.69139e-005 0.000212145 0.000901595 -0.000184794 -0.00021856 -59.9282 75.5373 58.5147 3.44751 10.707 2.67214 -167.277 84.4999 48.8109 163.14 -19.8389 -32.3488 7.17688e-006 -0.415674 2.90789e-005 -1.54148 10.0379 -0.123619 -5.98449e-006 15.0849 2.60947e-006 0.174367 -0.00815232 -5.35418 -72.0648 39.0385 39.3397 33.3638 2.10361 14.835 0.588946 0.308273 6.35287 -99.6409 81.413 100.35 -0.0181409 3.00815e-005 -0.117315 -0.124139 0.00241114 -0.799296 -79.8382 79.5773 80.5374 -0.000260645 -0.000218563 2.35799e-005 -0.000956224 0.000123001 -2.73079e-005 -66.7416 80.4058 67.2171 -0.00043713 1.48845e-005 -2.73114e-005 -0.000136601 -0.000109279 -5.46288e-005 -6.42159 81.2158 8.01779 -0.000218564 1.9583e-005 0.000212305 0.000901586 -0.00019124 -0.000218554 0.000811311 0.56661 89.91 -10.2385 -0.398125 -2.67895 4.2346e-007 1.37611 -1.75504e-009 22.2361 -0.242854 -0.19432 -1.89939e-010 -0.40403 1.17125e-008 -62.4442 3.13587 -2.61997 -35.4947 6.58526e-007 1.25032e-007 -180 -0.566579 -90.09 -10.3573 -2.47022 -3.59064 -3.52655e-007 -1.09564 -8.12706e-009 22.2072 0.109273 0.131893 3.99288e-007 0.124193 1.57861e-008 -62.5596 3.23678 -2.68082 -35.4947 2.43466e-006 -1.98689e-007 
44.7655 179.586 -172.686 -67.0297 -89.8182 -66.9684 -180 4.29621e-031 -90 0.0424276 0.0231293 -0.380391 0.0850004 0.0455392 -0.7608 0.0850004 0.0459764 -0.7608 5.80923 0.0897438 -0.00556273 0.667186 0.042383 0.694039 120.092 75.5343 58.4939 7.24572 6.16169 0.583665 -167.277 84.4999 48.8109 168.275 -11.455 -37.7303 2.71056e-006 16.3625 3.14378e-005 -1.81449 0.2364 -1.71782 1.29683e-007 0.376759 -3.71632e-008 0.340937 -0.00112047 -0.376598 -72.0648 39.0385 39.3397 33.3638 2.10362 14.835 0.588947 0.308273 6.35287 -99.6409 81.413 100.35 -0.0181409 2.77902e-005 -0.117315 -0.124139 0.00241114 -0.799296 -79.8382 79.5773 80.5374 -0.000225769 -0.000220911 2.2201e-005 -0.000956217 0.00012291 -2.73118e-005 -66.7416 80.4058 67.2171 -0.000437125 1.5957e-005 -2.73145e-005 -0.000136594 -0.000109276 -5.46331e-005 -6.42159 81.2158 8.01779 -0.000218558 1.69139e-005 0.000212145 0.000901595 -0.000184794 -0.00021856 -59.9282 75.5373 58.5147 3.67481 10.6968 2.60913 -167.277 84.4999 48.8109 163.146 -19.8406 -32.3459 7.17689e-006 -0.415692 2.90789e-005 -1.54665 9.90206 -0.120992 -5.97488e-006 14.881 2.60698e-006 0.315526 -0.0143239 -5.19882 -72.0648 39.0385 39.3397 33.3638 2.10361 14.835 0.588946 0.308273 6.35287 -99.6409 81.413 100.35 -0.0181409 3.00815e-005 -0.117315 -0.124139 0.00241114 -0.799296 -79.8382 79.5773 80.5374 -0.000260645 -0.000218563 2.35799e-005 -0.000956224 0.000123001 -2.73079e-005 -66.7416 80.4058 67.2171 -0.00043713 1.48845e-005 -2.73114e-005 -0.000136601 -0.000109279 -5.46288e-005 -6.42159 81.2158 8.01779 -0.000218564 1.9583e-005 0.000212305 0.000901586 -0.00019124 -0.000218554 0.000811311 0.56661 89.91 -10.2211 -0.346585 -2.69571 4.23463e-007 1.46597 -1.75511e-009 22.2403 -0.32147 -0.179074 -1.65829e-010 -0.521964 1.17127e-008 -62.4099 3.18573 -2.6502 -35.4947 6.58526e-007 1.25032e-007 -180 -0.566579 -90.09 -10.3252 -2.47909 -3.54595 -3.52661e-007 -1.13861 -8.12718e-009 22.1492 0.156703 0.123497 3.99268e-007 0.195464 1.57861e-008 -62.5631 3.23494 -2.6797 -35.4947 2.43466e-006 -1.98689e-007 
